<?xml version="1.0" encoding="utf-8"?>
<svg id="Capa_1" enable-background="new 0 0 512 512" height="512" viewBox="0 0 512 512" width="512" xmlns="http://www.w3.org/2000/svg">
  <g>
    <path d="m282.607 53.393c-5.857-5.858-15.355-5.858-21.213 0s-5.858 15.355 0 21.213l29.393 29.394-46.787 46.787 117.213 117.213 46.787-46.787 29.394 29.394c2.928 2.929 6.767 4.393 10.606 4.393 13.244 0 20.082-16.131 10.606-25.607-49.813-49.813 51.102 51.102-175.999-176z"/>
    <path d="M 222.787 172 L 187.5 207.287 L 155.902 239.124 L 195.008 278.23 C 204.486 287.708 197.644 303.837 184.402 303.837 C 180.563 303.837 176.724 302.373 173.796 299.444 L 134.689 260.337 L 90.607 304.18 C 73.02 321.766 73.018 350.232 90.607 367.819 L 106.787 383.999 L 4.394 486.393 C -1.464 492.251 -1.464 501.748 4.394 507.606 C 10.251 513.463 19.749 513.464 25.607 507.606 L 128 405.213 L 144.18 421.393 C 161.724 438.938 190.274 438.939 207.82 421.393 L 340 289.213 L 222.787 172 Z"/>
    <line style="stroke: rgb(0, 0, 0);" x1="101.9275050303493" y1="278.6119319554969" x2="101.9275050303493" y2="278.6119319554969"/>
  </g>
</svg>